HIERARCHY
ROOT SpineBase
{
  OFFSET 0.000000 0.000000 0.000000
  CHANNELS 6 Xposition Yposition Zposition Zrotation Xrotation Yrotation
  JOINT SpineMid
  {
    OFFSET 0.000000 32.267384 0.000000
    CHANNELS 3 Zrotation Xrotation Yrotation
    JOINT SpineShoulder
    {
      OFFSET 0.317100 24.016761 -0.807536
      CHANNELS 3 Zrotation Xrotation Yrotation
      JOINT Neck
      {
        OFFSET 0.236475 7.952910 -0.608289
        CHANNELS 3 Zrotation Xrotation Yrotation
        JOINT Head
        {
          OFFSET -6.056337 13.780018 -1.083759
          CHANNELS 3 Zrotation Xrotation Yrotation
          End Site
          {
            OFFSET 0 0 0
          }
        }
      }
      JOINT ShoulderLeft
      {
        OFFSET -16.388346 -5.803938 6.264113
        CHANNELS 3 Zrotation Xrotation Yrotation
        JOINT ElbowLeft
        {
          OFFSET -2.505029 -32.474550 0.119546
          CHANNELS 3 Zrotation Xrotation Yrotation
          JOINT WristLeft
          {
            OFFSET -2.226216 -14.377160 -20.795664
            CHANNELS 3 Zrotation Xrotation Yrotation
            JOINT HandLeft
            {
              OFFSET -1.050211 -1.163007 -5.291298
              CHANNELS 3 Zrotation Xrotation Yrotation
              JOINT HandTipLeft
              {
                OFFSET 0.302385 -2.839294 -8.147273
                CHANNELS 3 Zrotation Xrotation Yrotation
                End Site
                {
                  OFFSET 0 0 0
                }
              }
              JOINT ThumbLeft
              {
                OFFSET 5.774828 0.698027 -0.903938
                CHANNELS 3 Zrotation Xrotation Yrotation
                End Site
                {
                  OFFSET 0 0 0
                }
              }
            }
          }
        }
      }
      JOINT ShoulderRight
      {
        OFFSET 15.198206 -3.579211 -7.593864
        CHANNELS 3 Zrotation Xrotation Yrotation
        JOINT ElbowRight
        {
          OFFSET 10.406113 -23.428723 1.457084
          CHANNELS 3 Zrotation Xrotation Yrotation
          JOINT WristRight
          {
            OFFSET -8.533163 -19.797076 -12.759620
            CHANNELS 3 Zrotation Xrotation Yrotation
            JOINT HandRight
            {
              OFFSET -3.700387 -1.780536 -2.180423
              CHANNELS 3 Zrotation Xrotation Yrotation
              JOINT HandTipRight
              {
                OFFSET -2.578658 -4.163947 -2.317217
                CHANNELS 3 Zrotation Xrotation Yrotation
                End Site
                {
                  OFFSET 0 0 0
                }
              }
              JOINT ThumbRight
              {
                OFFSET 0.935418 -1.138847 -4.636860
                CHANNELS 3 Zrotation Xrotation Yrotation
                End Site
                {
                  OFFSET 0 0 0
                }
              }
            }
          }
        }
      }
    }
  }
  JOINT HipLeft
  {
    OFFSET -6.367205 -0.101238 -1.067483
    CHANNELS 3 Zrotation Xrotation Yrotation
    JOINT KneeLeft
    {
      OFFSET 1.627776 -33.094055 4.439130
      CHANNELS 3 Zrotation Xrotation Yrotation
      JOINT AnkleLeft
      {
        OFFSET 5.813387 -38.450519 8.262892
        CHANNELS 3 Zrotation Xrotation Yrotation
        JOINT FootLeft
        {
          OFFSET -2.337092 -7.145982 -8.263859
          CHANNELS 3 Zrotation Xrotation Yrotation
          End Site
          {
            OFFSET 0 0 0
          }
        }
      }
    }
  }
  JOINT HipRight
  {
    OFFSET 8.215862 1.802057 -6.183283
    CHANNELS 3 Zrotation Xrotation Yrotation
    JOINT KneeRight
    {
      OFFSET 6.483393 -35.387295 2.980289
      CHANNELS 3 Zrotation Xrotation Yrotation
      JOINT AnkleRight
      {
        OFFSET 3.293578 -37.143592 5.938627
        CHANNELS 3 Zrotation Xrotation Yrotation
        JOINT FootRight
        {
          OFFSET -1.842469 -8.090467 -5.558976
          CHANNELS 3 Zrotation Xrotation Yrotation
          End Site
          {
            OFFSET 0 0 0
          }
        }
      }
    }
  }
}
MOTION
Frames: 14
Frame Time: 0.033333
-81.089053 79.510805 338.161918 2.341105 -1.545479 25.089916 0.157215 -0.025731 -24.957554 0.242699 -0.022827 0.148296 11.457959 -13.925969 -4.092111 0.000000 0.000000 0.000000 3.263204 20.062912 -2.790009 -14.471229 54.708430 2.797885 143.923608 -9.430299 -163.786687 139.754987 27.765058 -143.557468 0.000000 0.000000 0.000000 0.000000 0.000000 0.000000 11.129129 13.714308 4.034853 -68.484191 7.573372 17.502179 18.233405 -41.436261 24.175582 -4.403057 45.048572 -20.990516 0.000000 0.000000 0.000000 0.000000 0.000000 0.000000 -2.749375 5.132173 -25.159648 1.320275 -2.011412 -0.006730 14.422465 -9.197502 -12.875858 0.000000 0.000000 0.000000 -1.466335 2.391455 -25.027728 -2.098996 -0.735331 -0.414552 -3.745274 17.137010 1.361975 0.000000 0.000000 0.000000
-81.096142 79.510119 338.167153 2.326315 -1.548612 25.121834 0.142333 -0.041388 -24.989502 0.241134 -0.032086 0.148093 11.550779 -13.850652 -4.072424 0.000000 0.000000 0.000000 2.693209 19.601637 -2.616202 -13.687894 54.053860 2.667934 142.452117 -2.167274 -162.516370 141.572800 19.777740 -148.136338 0.000000 0.000000 0.000000 0.000000 0.000000 0.000000 11.092174 13.757614 4.036804 -68.335500 6.869854 17.411371 18.849727 -41.075705 24.259598 -8.346112 44.635883 -17.614456 0.000000 0.000000 0.000000 0.000000 0.000000 0.000000 -2.726366 5.104597 -25.191778 1.240404 -1.841665 -0.000092 11.932067 -1.644968 -12.224247 0.000000 0.000000 0.000000 -1.450266 2.388843 -25.060151 -2.001896 -0.805026 -0.405722 -0.560780 4.487167 1.369031 0.000000 0.000000 0.000000
-81.105354 79.508404 338.168292 2.307162 -1.550630 25.198110 0.130553 -0.054952 -25.066132 0.235286 -0.040231 0.147389 11.718170 -13.812700 -4.047495 0.000000 0.000000 0.000000 1.963337 19.005370 -2.400550 -12.357322 53.551948 2.149848 136.149463 -14.093265 -157.062423 125.054202 21.246032 -138.071407 0.000000 0.000000 0.000000 0.000000 0.000000 0.000000 11.074993 13.728604 4.018447 -68.210692 6.181606 17.396091 17.514587 -39.145242 22.673768 -12.930849 39.498079 -13.303474 0.000000 0.000000 0.000000 0.000000 0.000000 0.000000 -2.652967 5.103353 -25.265372 1.106241 -1.753587 -0.012390 8.795857 5.769024 -10.519054 0.000000 0.000000 0.000000 -1.428872 2.384461 -25.137146 -1.876911 -0.868267 -0.391421 1.221493 -2.276578 1.554286 0.000000 0.000000 0.000000
-81.110233 79.503209 338.163114 2.293887 -1.544133 25.267192 0.126198 -0.063051 -25.135750 0.232733 -0.044118 0.146874 11.825619 -13.814381 -4.032905 0.000000 0.000000 0.000000 1.144194 18.300426 -2.169314 -10.847508 52.689114 1.555092 124.068035 -28.516796 -145.254881 103.574775 8.642676 -125.728222 0.000000 0.000000 0.000000 0.000000 0.000000 0.000000 11.055779 13.616557 3.983658 -68.053730 5.662473 17.429082 16.752034 -38.438967 22.557296 -18.587694 34.857361 -8.595244 0.000000 0.000000 0.000000 0.000000 0.000000 0.000000 -2.653921 5.086945 -25.336799 1.062137 -1.618986 -0.004124 3.895300 15.072829 -7.237142 0.000000 0.000000 0.000000 -1.416740 2.374655 -25.206911 -1.827779 -0.836613 -0.379879 1.355302 -1.969444 1.338229 0.000000 0.000000 0.000000
-81.109029 79.496868 338.154884 2.283686 -1.544180 25.341283 0.110576 -0.076935 -25.209851 0.225514 -0.056301 0.146538 11.981271 -13.821824 -4.025399 0.000000 0.000000 0.000000 -0.925367 16.108979 -1.597613 -5.440499 50.664936 -1.603902 -71.779940 -53.762063 61.149196 36.668390 -47.805968 -81.480242 0.000000 0.000000 0.000000 0.000000 0.000000 0.000000 11.024275 13.547880 3.951089 -67.922725 5.237155 17.473921 16.572477 -37.890166 22.355242 -23.693572 29.149684 -4.767944 0.000000 0.000000 0.000000 0.000000 0.000000 0.000000 -2.686794 5.221502 -25.415580 1.178914 -1.671883 0.017687 0.280390 19.448040 -4.276879 0.000000 0.000000 0.000000 -1.404416 2.372171 -25.281425 -1.825021 -0.744029 -0.369778 -0.123555 5.331483 0.708480 0.000000 0.000000 0.000000
-81.108975 79.486246 338.141089 2.270644 -1.550678 25.375348 0.095503 -0.093233 -25.243760 0.216976 -0.071337 0.146334 12.191556 -13.813907 -4.009466 0.000000 0.000000 0.000000 -1.178668 15.514899 -1.496033 -4.299093 50.171585 -2.436183 -68.997279 -22.230358 55.863492 26.498457 -56.171100 -58.632381 0.000000 0.000000 0.000000 0.000000 0.000000 0.000000 10.980874 13.484650 3.915281 -67.769669 5.021374 17.529671 15.902790 -38.164557 23.197061 -33.115445 15.456733 0.969799 0.000000 0.000000 0.000000 0.000000 0.000000 0.000000 -2.731975 5.411814 -25.455111 1.389912 -1.852894 0.043737 -1.904465 20.548155 -2.203223 0.000000 0.000000 0.000000 -1.388427 2.373297 -25.315854 -1.877642 -0.602662 -0.363766 -2.754185 18.139143 0.198602 0.000000 0.000000 0.000000
-81.114999 79.475555 338.124758 2.251925 -1.559372 25.398419 0.084759 -0.110064 -25.266842 0.208785 -0.087190 0.146136 12.362964 -13.762340 -3.989535 0.000000 0.000000 0.000000 -0.995611 15.217791 -1.486972 -3.557652 49.656612 -3.321959 -71.368316 -16.537541 57.737472 21.396491 -61.396349 -59.517522 0.000000 0.000000 0.000000 0.000000 0.000000 0.000000 10.942098 13.406213 3.873481 -67.742440 4.815759 17.669856 15.193581 -38.329696 23.802038 -36.649902 3.138847 0.637026 0.000000 0.000000 0.000000 0.000000 0.000000 0.000000 -2.767123 5.675066 -25.483314 1.654065 -2.194230 0.063443 -2.106240 18.170766 -1.481373 0.000000 0.000000 0.000000 -1.366817 2.373696 -25.339450 -1.864572 -0.578415 -0.359069 -3.699618 25.842346 -0.380545 0.000000 0.000000 0.000000
-81.119035 79.462978 338.106656 2.243536 -1.564732 25.383320 0.079524 -0.124939 -25.251422 0.210029 -0.097914 0.146785 12.482304 -13.782786 -3.990641 0.000000 0.000000 0.000000 -0.243607 15.492054 -1.621206 -5.636972 50.261274 -1.981396 -69.269028 -24.489199 56.605603 22.620336 -56.834746 -64.784750 0.000000 0.000000 0.000000 0.000000 0.000000 0.000000 10.898960 13.316962 3.832071 -67.611115 5.325272 17.767946 17.471912 -40.500097 25.661438 -38.305738 2.779704 1.860102 0.000000 0.000000 0.000000 0.000000 0.000000 0.000000 -2.882435 5.828741 -25.477199 1.956544 -2.373243 0.104090 -0.083548 13.178711 -2.588480 0.000000 0.000000 0.000000 -1.357560 2.374589 -25.324542 -1.850009 -0.558011 -0.354531 -4.110640 32.438342 -1.107488 0.000000 0.000000 0.000000
-81.134807 79.460775 338.092554 2.235124 -1.571211 25.383344 0.089499 -0.139790 -25.251017 0.219975 -0.103444 0.148232 12.526129 -13.852690 -4.011673 0.000000 0.000000 0.000000 -0.875935 14.076716 -1.397152 -3.512260 49.370127 -3.443905 -66.865027 -0.538523 53.496083 18.323217 -64.678054 -45.232715 0.000000 0.000000 0.000000 0.000000 0.000000 0.000000 10.853441 13.210557 3.788091 -67.353571 5.689715 17.786621 16.452999 -39.208071 24.003933 -30.863588 13.795514 -1.743642 0.000000 0.000000 0.000000 0.000000 0.000000 0.000000 -2.919411 5.928770 -25.480621 2.126131 -2.539314 0.120715 6.297593 2.954589 -7.158095 0.000000 0.000000 0.000000 -1.347178 2.376843 -25.324743 -1.778806 -0.566888 -0.343692 -7.602719 35.964896 1.174184 0.000000 0.000000 0.000000
-81.149063 79.464130 338.080856 2.234957 -1.580195 25.371859 0.100919 -0.153030 -25.238683 0.232793 -0.108374 0.150221 12.561308 -13.946704 -4.039594 0.000000 0.000000 0.000000 -0.508686 14.576416 -1.500146 -3.900077 48.993084 -3.442577 -75.901154 -23.847552 64.027438 15.298641 -62.131972 -73.309049 0.000000 0.000000 0.000000 0.000000 0.000000 0.000000 10.825375 13.182833 3.766055 -67.083842 5.671621 17.688781 15.954613 -39.682619 25.031952 -10.490240 35.906460 -16.587798 0.000000 0.000000 0.000000 0.000000 0.000000 0.000000 -2.944058 6.028242 -25.470504 3.012758 -2.598487 0.343239 9.454015 -5.374352 -9.507151 0.000000 0.000000 0.000000 -1.343661 2.384617 -25.313067 -1.722498 -0.565877 -0.334284 -8.726811 38.541000 1.701871 0.000000 0.000000 0.000000
-81.166522 79.464133 338.072551 2.235101 -1.595124 25.328469 0.116365 -0.159066 -25.194500 0.243360 -0.110909 0.151945 12.589274 -14.023824 -4.061655 0.000000 0.000000 0.000000 0.605079 16.604906 -1.879882 -6.623605 49.503857 -1.899998 77.924688 -81.998563 -132.296163 53.212423 -42.084213 -109.673340 0.000000 0.000000 0.000000 0.000000 0.000000 0.000000 10.791374 13.309653 3.796150 -66.909325 5.752539 17.486927 16.373005 -40.078845 25.508584 -3.685362 42.936171 -22.010117 0.000000 0.000000 0.000000 0.000000 0.000000 0.000000 -2.915742 6.034226 -25.424396 2.986290 -2.605316 0.338947 11.841072 -12.670972 -9.838581 0.000000 0.000000 0.000000 -1.339225 2.397151 -25.269329 -1.671699 -0.530412 -0.322244 -8.983089 38.965836 1.801740 0.000000 0.000000 0.000000
-81.186261 79.464634 338.063366 2.236971 -1.608033 25.240098 0.134783 -0.168844 -25.105152 0.257158 -0.108922 0.153895 12.531145 -14.103730 -4.097530 0.000000 0.000000 0.000000 1.215239 18.051890 -2.149190 -8.324221 49.894522 -0.895949 102.411042 -38.008960 -125.390326 88.152320 -21.249427 -121.896696 0.000000 0.000000 0.000000 0.000000 0.000000 0.000000 11.088248 13.580483 3.845126 -67.038327 5.733360 17.114506 14.318840 -40.049974 26.203259 7.603493 44.398213 -31.741622 0.000000 0.000000 0.000000 0.000000 0.000000 0.000000 -2.880393 5.995074 -25.332186 2.177668 -2.850615 0.093095 14.988806 -19.473685 -9.704206 0.000000 0.000000 0.000000 -1.339122 2.407552 -25.180561 -1.632369 -0.524891 -0.315193 -8.090802 37.071763 1.278111 0.000000 0.000000 0.000000
-81.200578 79.469534 338.045993 2.248569 -1.613626 25.137662 0.157016 -0.177613 -25.001509 0.275234 -0.102776 0.156306 12.404719 -14.132656 -4.122108 0.000000 0.000000 0.000000 1.485619 19.140358 -2.335668 -9.322550 50.098423 -0.263962 109.796656 -28.330321 -131.205753 99.374038 -11.151564 -123.242492 0.000000 0.000000 0.000000 0.000000 0.000000 0.000000 11.789755 13.884340 3.872803 -67.481441 5.599423 16.637580 9.745122 -38.728933 26.147326 15.829661 40.465129 -38.026481 0.000000 0.000000 0.000000 0.000000 0.000000 0.000000 -2.876521 5.838317 -25.227054 2.057772 -2.712769 0.076683 13.388291 -13.204483 -10.300372 0.000000 0.000000 0.000000 -1.351568 2.415132 -25.077501 -1.585347 -0.529790 -0.307943 -8.152649 37.073885 1.286959 0.000000 0.000000 0.000000
-81.209027 79.472284 338.026702 2.265393 -1.611887 24.990230 0.176100 -0.183631 -24.852959 0.293833 -0.095409 0.158613 12.263714 -14.166171 -4.145563 0.000000 0.000000 0.000000 1.208758 19.547745 -2.345763 -8.826665 49.094876 -0.492044 108.992052 -25.920342 -131.226099 101.621943 -12.674762 -124.382840 0.000000 0.000000 0.000000 0.000000 0.000000 0.000000 12.720449 14.299034 3.913986 -68.202515 5.406329 16.065671 6.165352 -37.883121 26.593418 22.792525 36.471134 -43.391264 0.000000 0.000000 0.000000 0.000000 0.000000 0.000000 -2.950762 5.783074 -25.081412 2.099988 -2.683803 0.082431 9.013652 -6.964981 -7.169648 0.000000 0.000000 0.000000 -1.373783 2.417161 -24.929374 -1.560966 -0.545693 -0.305545 -8.204668 37.085517 1.310349 0.000000 0.000000 0.000000
